<svg width="67" height="75" viewBox="0 0 67 75" fill="none" xmlns="http://www.w3.org/2000/svg">
<path d="M33.676 72.9189C32.679 72.9411 31.6976 72.6686 30.8548 72.1355C30.012 71.6024 29.3453 70.8324 28.9382 69.9221L23.4111 57.7973C23.2565 57.4593 23.0068 57.1736 22.6925 56.9752C22.3782 56.7768 22.0129 56.6742 21.6412 56.6801L21.4275 56.6833L8.19672 58.3251L7.60891 58.334C6.664 58.3404 5.73559 58.0864 4.92564 57.5997C4.11569 57.113 3.45554 56.4125 3.01768 55.5752C2.57983 54.7378 2.38121 53.796 2.44364 52.8531C2.50608 51.9103 2.82715 51.0028 3.3716 50.2305L11.0973 39.3498C11.3321 39.0171 11.4553 38.6186 11.4492 38.2114C11.4431 37.8042 11.308 37.4095 11.0632 37.0841L3.01426 26.4403C2.44687 25.6847 2.09869 24.7873 2.00796 23.8468C1.91724 22.9062 2.08748 21.9589 2.49999 21.1087C2.9125 20.2586 3.55132 19.5386 4.34629 19.0278C5.14125 18.517 6.06162 18.2352 7.00629 18.2133L7.5941 18.2045L20.8682 19.4482L21.0819 19.445C21.4536 19.4397 21.8157 19.3262 22.1239 19.1184C22.4321 18.9107 22.6731 18.6176 22.8175 18.2751L27.9779 5.98978C28.3627 5.07093 29.0071 4.28427 29.8323 3.72622C30.6575 3.16817 31.6275 2.86297 32.6236 2.84801C33.6196 2.83305 34.5984 3.10897 35.44 3.64199C36.2815 4.17501 36.9493 4.94195 37.3615 5.84884L42.8885 17.9736C43.0431 18.3117 43.2928 18.5973 43.6072 18.7957C43.9215 18.9942 44.2868 19.0967 44.6584 19.0909L44.8722 19.0877L58.103 17.4458L58.6908 17.437C59.6357 17.4305 60.5641 17.6846 61.374 18.1712C62.184 18.6579 62.8441 19.3584 63.282 20.1958C63.7198 21.0331 63.9185 21.9749 63.856 22.9178C63.7936 23.8607 63.4725 24.7681 62.9281 25.5404L55.2024 36.4211C54.9676 36.7538 54.8443 37.1524 54.8505 37.5595C54.8566 37.9667 54.9917 38.3614 55.2364 38.6868L63.2854 49.3306C63.8528 50.0862 64.201 50.9836 64.2917 51.9242C64.3824 52.8647 64.2122 53.8121 63.7997 54.6622C63.3872 55.5123 62.7483 56.2323 61.9534 56.7431C61.1584 57.2539 60.238 57.5357 59.2934 57.5576L58.7056 57.5665L45.4315 56.3227L45.2177 56.3259C44.8461 56.3313 44.484 56.4448 44.1758 56.6525C43.8676 56.8603 43.6265 57.1533 43.4822 57.4958L38.3218 69.7811C37.9422 70.7033 37.2988 71.493 36.4724 72.0511C35.646 72.6093 34.6733 72.9112 33.676 72.9189Z" fill="#03FF4F"/>
<path d="M32.6479 4.54352C33.3333 4.53462 34.0061 4.72808 34.5822 5.09972C35.1582 5.47136 35.6118 6.00467 35.8862 6.63285L41.4132 18.7576C41.6933 19.3816 42.1482 19.9111 42.723 20.2819C43.2977 20.6527 43.9676 20.849 44.6516 20.847L45.0363 20.8412L58.2778 19.1992L58.6839 19.1931C59.3335 19.1877 59.972 19.3618 60.529 19.6962C61.086 20.0307 61.5397 20.5125 61.8403 21.0884C62.1408 21.6644 62.2765 22.3121 62.2322 22.9603C62.188 23.6084 61.9656 24.2318 61.5897 24.7616L53.864 35.6423C53.4302 36.2536 53.2024 36.9872 53.2137 37.7366C53.2249 38.4861 53.4746 39.2124 53.9266 39.8104L62.0485 50.3248C62.4402 50.8431 62.6812 51.4595 62.7448 52.106C62.8085 52.7526 62.6924 53.4041 62.4093 53.9888C62.1262 54.5736 61.6871 55.0687 61.1404 55.4197C60.5937 55.7708 59.9608 55.964 59.3112 55.9781L58.9051 55.9842L45.6203 54.7406L45.2356 54.7464C44.5519 54.7649 43.8882 54.9812 43.3248 55.3691C42.7615 55.757 42.3226 56.2999 42.0615 56.9321L36.9011 69.2174C36.6289 69.8356 36.1851 70.3626 35.6222 70.7359C35.0593 71.1092 34.4011 71.313 33.7257 71.3231C33.0504 71.3333 32.3863 71.1493 31.8125 70.7931C31.2387 70.4369 30.7792 69.9234 30.4886 69.3137L24.9616 57.1889C24.6815 56.5649 24.2266 56.0354 23.6518 55.6646C23.0771 55.2938 22.4072 55.0975 21.7232 55.0996L21.3385 55.1053L8.09702 56.7474L7.69089 56.7535C7.02902 56.7874 6.37097 56.6341 5.79218 56.3113C5.21338 55.9885 4.73725 55.5091 4.41834 54.9281C4.09944 54.3471 3.95067 53.6881 3.98908 53.0264C4.02749 52.3648 4.25152 51.7274 4.63551 51.1872L12.3623 40.3813C12.7961 39.77 13.0239 39.0364 13.0126 38.287C13.0014 37.5375 12.7517 36.8111 12.2997 36.2132L4.25024 25.5373C3.85851 25.0191 3.61753 24.4027 3.55386 23.7561C3.49019 23.1096 3.60632 22.458 3.88943 21.8733C4.17254 21.2886 4.61164 20.7934 5.1583 20.4424C5.70496 20.0914 6.33795 19.8982 6.98745 19.884L7.39358 19.8779L20.6784 21.1215L21.0631 21.1158C21.7468 21.0973 22.4105 20.8809 22.9739 20.493C23.5372 20.1051 23.9761 19.5623 24.2372 18.9301L29.3976 6.64477C29.6531 6.00863 30.0904 5.46197 30.655 5.0732C31.2196 4.68443 31.8864 4.47082 32.5718 4.45912L32.6479 4.54352ZM32.5236 1.25289C31.2159 1.26264 29.9401 1.65785 28.8558 2.38907C27.7716 3.12029 26.9271 4.15506 26.428 5.36384L21.2676 17.6492C21.245 17.7067 21.2058 17.7562 21.1548 17.7912C21.1039 17.8263 21.0437 17.8453 20.9819 17.8459L7.66508 16.6028C7.41215 16.5906 7.15871 16.5944 6.90627 16.6142C5.67018 16.6442 4.46613 17.0134 3.42571 17.6815C2.38529 18.3496 1.54855 19.2908 1.00693 20.4023C0.465315 21.5139 0.239671 22.7529 0.354663 23.984C0.469654 25.2151 0.920859 26.3908 1.65895 27.3828L9.69724 38.0268C9.7397 38.0817 9.76322 38.1488 9.76426 38.2182C9.76531 38.2876 9.74381 38.3554 9.70302 38.4115L1.98803 49.2921C1.28007 50.3058 0.864377 51.4946 0.786411 52.7286C0.708446 53.9626 0.9712 55.1943 1.54595 56.289C2.12071 57.3838 2.98535 58.2994 4.04536 58.936C5.10537 59.5725 6.31997 59.9054 7.5564 59.8983C7.80933 59.9105 8.06277 59.9067 8.31521 59.8869L21.546 58.245C21.6125 58.2401 21.679 58.2554 21.7367 58.2888C21.7944 58.3223 21.8407 58.3724 21.8695 58.4326L27.3965 70.5574C27.9391 71.7453 28.816 72.7495 29.9199 73.4472C31.0238 74.145 32.3071 74.5061 33.6129 74.4865C34.9187 74.4668 36.1905 74.0673 37.273 73.3368C38.3555 72.6062 39.2018 71.5761 39.7085 70.3725L44.8689 58.0871C44.8914 58.0296 44.9307 57.9802 44.9816 57.9451C45.0325 57.9101 45.0927 57.891 45.1545 57.8904L58.4714 59.1336C58.7243 59.1457 58.9778 59.1419 59.2302 59.1222C60.4663 59.0921 61.6703 58.7229 62.7107 58.0548C63.7512 57.3867 64.5879 56.4455 65.1295 55.334C65.6711 54.2225 65.8968 52.9834 65.7818 51.7523C65.6668 50.5213 65.2156 49.3455 64.4775 48.3535L56.4392 37.7095C56.3968 37.6547 56.3732 37.5875 56.3722 37.5181C56.3712 37.4488 56.3926 37.3809 56.4334 37.3248L64.1484 26.4442C64.8564 25.4305 65.2721 24.2417 65.35 23.0077C65.428 21.7737 65.1653 20.542 64.5905 19.4473C64.0157 18.3526 63.1511 17.4369 62.0911 16.8003C61.0311 16.1638 59.8165 15.8309 58.5801 15.838C58.3271 15.8258 58.0737 15.8297 57.8212 15.8494L44.5905 17.4913C44.5239 17.4962 44.4575 17.481 44.3997 17.4475C44.342 17.414 44.2958 17.3639 44.267 17.3037L38.7399 5.17892C38.2048 3.98566 37.3296 2.97673 36.2239 2.2784C35.1181 1.58007 33.831 1.22336 32.5236 1.25289Z" fill="#371A45"/>
<g opacity="0.4">
<path opacity="0.4" d="M58.3226 50.2772L45.0386 49.0871C44.2916 49.0148 43.5411 49.1833 42.8968 49.568C42.2525 49.9528 41.7482 50.5335 41.4575 51.2254L36.2971 63.5107C36.0417 64.1469 35.6043 64.6935 35.0397 65.0823C34.4751 65.4711 33.8084 65.6847 33.123 65.6964L33.1222 65.6429C32.4368 65.6518 31.7639 65.4583 31.1879 65.0867C30.6119 64.7151 30.1583 64.1818 29.8839 63.5536L24.3568 51.4288C24.0541 50.7359 23.536 50.159 22.8795 49.7837C22.223 49.4085 21.4631 49.2548 20.7124 49.3456L7.47092 50.9876C4.42998 51.3647 2.27242 50.0608 4.04151 47.5649L11.8111 36.7583C12.2448 36.1471 12.4726 35.4135 12.4614 34.664C12.4501 33.9146 12.2004 33.1882 11.7485 32.5903L3.699 21.9144C3.24928 21.3233 2.99892 20.6046 2.98402 19.862C2.98226 19.7444 2.98065 19.6376 2.97888 19.52C2.9722 19.424 2.97075 19.3276 2.97455 19.2314C3.00194 19.0595 3.04594 18.8905 3.10594 18.7271C3.13023 18.6423 3.16116 18.5596 3.19844 18.4798C3.26639 18.3041 3.3497 18.1347 3.44739 17.9736L3.60417 17.7361C3.65408 17.6595 3.71019 17.5872 3.77196 17.5198L3.96112 17.3031L4.17198 17.1076C4.31437 16.983 4.46637 16.8699 4.62657 16.7694L4.88114 16.6372L5.14656 16.5157C5.23629 16.4759 5.32865 16.4424 5.42299 16.4153C5.8642 16.2765 6.32915 16.2295 6.78922 16.2772L8.81283 16.4927C8.81283 16.4927 10.4944 22.4003 12.68 25.5744C14.8656 28.7485 17.8742 31.9103 18.0319 34.5804C18.1896 37.2505 6.55648 44.9081 10.8475 45.9126C15.1385 46.9172 24.693 42.4977 26.9108 47.8093C29.1285 53.1209 32.9796 60.4177 32.9796 60.4177L32.9804 60.4712C32.9804 60.4712 36.6106 53.062 38.6678 47.6862C40.725 42.3104 50.4079 46.4409 54.6668 45.3079C58.9258 44.175 47.0572 36.8703 47.1453 34.1966C47.2334 31.5228 50.135 28.2722 52.2243 25.0339C54.3137 21.7956 55.8376 15.7863 55.8376 15.7863L57.7902 15.5432C58.2486 15.4817 58.7148 15.5147 59.1599 15.6402C59.255 15.6645 59.3484 15.6952 59.4393 15.7322L59.7082 15.8458L59.9666 15.9702C60.1298 16.0659 60.2851 16.1744 60.4312 16.2946L60.6478 16.4838L60.8434 16.6946C60.9072 16.7601 60.9654 16.8307 61.0176 16.9058L61.1814 17.1385C61.2839 17.2966 61.3723 17.4634 61.4455 17.637C61.4852 17.7157 61.5185 17.7974 61.5454 17.8814C61.6103 18.043 61.6593 18.2105 61.6919 18.3816C61.6985 18.4776 61.7 18.5739 61.6962 18.6701C61.698 18.7877 61.6996 18.8946 61.7013 19.0121C61.7087 19.7548 61.4801 20.4807 61.0483 21.0851L53.3226 31.9658C52.8888 32.5771 52.6611 33.3106 52.6723 34.0601C52.6836 34.8095 52.9333 35.5359 53.3852 36.1339L61.6468 46.6997C63.4901 49.1413 61.3735 50.5628 58.3226 50.2772Z" fill="#04AA1F"/>
</g>
<g opacity="0.6">
<path opacity="0.6" d="M56.3884 19.4086C56.3884 19.4086 56.1562 20.3207 55.7588 21.6202C50.24 23.5631 42.929 25.7574 40.9753 24.504C38.6437 22.9996 35.4087 16.1533 33.7705 12.4151C33.6887 12.2169 33.5492 12.0479 33.3702 11.9301C33.1911 11.8122 32.9808 11.7509 32.7664 11.7541C32.5521 11.7573 32.3436 11.8249 32.1682 11.9481C31.9928 12.0713 31.8584 12.2444 31.7826 12.4449C30.2574 16.2307 27.23 23.2032 24.9441 24.7448C23.029 26.0563 15.6554 24.0825 10.0807 22.3062C9.63295 20.966 9.36361 20.1149 9.36361 20.1149L20.668 21.1744C21.4211 21.2426 22.1761 21.0662 22.8211 20.6714C23.466 20.2766 23.9665 19.6844 24.2483 18.9827L29.4087 6.69739C29.6808 6.07922 30.1247 5.55218 30.6876 5.1789C31.2504 4.80562 31.9087 4.60179 32.584 4.59165C33.2593 4.58151 33.9234 4.76547 34.4972 5.12168C35.0711 5.47788 35.5306 5.99136 35.8211 6.60107L41.3482 18.7259C41.6509 19.4188 42.169 19.9957 42.8255 20.3709C43.482 20.7462 44.2419 20.8998 44.9926 20.8091L56.3884 19.4086Z" fill="white"/>
</g>
</svg>
